<?xml version="1.0" encoding="utf-8"?>
<svg width="65" height="65" viewBox="0 0 65 65" xmlns="http://www.w3.org/2000/svg">
  <defs>
    <linearGradient x1="79.913%" y1="9.712%" x2="21.854%" y2="77.379%" id="a" gradientTransform="matrix(1.261005, -0.187779, -0.39587, 1.316708, 0.03074, 0.022182)">
      <stop offset="0" style="stop-color: rgb(144, 89, 255);"/>
      <stop offset="1" style="stop-color: rgb(32, 18, 58);"/>
    </linearGradient>
  </defs>
  <path d="M 821.5 606 C 803.55 606 789 591.45 789 573.5 C 789 555.55 803.55 541 821.5 541 C 832.11 541 841.533 546.084 847.464 553.949 C 851.567 559.389 854 566.16 854 573.5 C 854 591.45 839.45 606 821.5 606 Z M 821.5 603.174 C 837.888 603.174 851.174 589.888 851.174 573.5 C 851.174 557.112 837.888 543.826 821.5 543.826 C 805.112 543.826 791.826 557.112 791.826 573.5 C 791.826 589.888 805.112 603.174 821.5 603.174 Z M 808.86 574.913 C 809.444 580.193 813.26 584.499 818.287 585.808 C 816.126 582.555 814.826 578.806 814.509 574.913 L 808.86 574.913 Z M 808.86 572.087 L 814.506 572.087 C 814.822 568.194 816.123 564.444 818.286 561.192 C 813.26 562.501 809.444 566.807 808.86 572.087 L 808.86 572.087 Z M 834.14 572.087 C 833.556 566.807 829.74 562.501 824.713 561.192 C 826.874 564.445 828.174 568.194 828.491 572.087 L 834.14 572.087 Z M 834.14 574.913 L 828.494 574.913 C 828.178 578.806 826.877 582.556 824.714 585.808 C 829.74 584.499 833.556 580.193 834.14 574.913 L 834.14 574.913 Z M 817.338 572.087 L 825.658 572.087 C 825.303 568.254 823.86 564.602 821.5 561.561 C 819.137 564.601 817.693 568.253 817.338 572.087 Z M 825.662 574.913 L 817.342 574.913 C 817.697 578.746 819.14 582.398 821.5 585.439 C 823.863 582.399 825.307 578.747 825.662 574.913 Z M 821.5 589.043 C 812.916 589.043 805.957 582.084 805.957 573.5 C 805.957 564.916 812.916 557.957 821.5 557.957 C 830.084 557.957 837.043 564.916 837.043 573.5 C 837.043 582.084 830.084 589.043 821.5 589.043 Z" transform="translate(-789 -541)" fill="url(#a)" fill-rule="evenodd"/>
</svg>